<svg xmlns="http://www.w3.org/2000/svg" viewBox="0 0 500 500"><defs><style>.cls-1{isolation:isolate;}.cls-2{fill:#eaf9f8;}.cls-3{fill:#e03c03;}.cls-4{fill:#ff6224;}.cls-5{fill:#ffc947;}.cls-6{fill:#20c3c5;}.cls-7{fill:#fff;}.cls-8{fill:#383873;}.cls-9{fill:#86bfbc;}.cls-10{fill:#b8e3e2;}.cls-11{fill:#9fccc9;}.cls-12,.cls-21,.cls-22{fill:none;stroke:#000;stroke-linecap:round;stroke-miterlimit:10;stroke-width:0.82px;}.cls-12,.cls-18{opacity:0.15;}.cls-12,.cls-15,.cls-18,.cls-20,.cls-23{mix-blend-mode:overlay;}.cls-13{fill:#382424;}.cls-14{fill:#ffad94;}.cls-15,.cls-20{opacity:0.25;}.cls-16{fill:#0c2059;}.cls-17{fill:#2e4780;}.cls-19{fill:#169799;}.cls-22{stroke-dasharray:4.15 4.15;}.cls-23{opacity:0.53;}</style></defs><title>Mesa de trabajo 1</title><g class="cls-1"><g id="OBJECTS"><path class="cls-2" d="M417.76,231.27c-23.35,35-73.16,143-60.91,183.15l-178.7,0s-25.83-19.22-50.91-52.65c-4.56-6.07-9.1-12.62-13.44-19.6a242.59,242.59,0,0,1-13-23.64c-11.63-24.21-19.93-52.27-20.27-83.28C79.34,127.94,172.25,28.17,298.65,68.43S441.09,196.32,417.76,231.27Z"/><path class="cls-3" d="M305.94,415.69a1.23,1.23,0,0,1-.95-.46L209.68,296.74a1.23,1.23,0,0,1,1.92-1.54l95.3,118.49a1.23,1.23,0,0,1-1,2Z"/><path class="cls-4" d="M158.11,415.69a1.25,1.25,0,0,1-.77-.27,1.23,1.23,0,0,1-.18-1.73l95.3-118.49a1.23,1.23,0,1,1,1.91,1.54l-95.3,118.49A1.23,1.23,0,0,1,158.11,415.69Z"/><path class="cls-4" d="M253.41,415.69a1.23,1.23,0,0,1-.95-.46l-95.3-118.49a1.23,1.23,0,1,1,1.91-1.54l95.3,118.49a1.23,1.23,0,0,1-.19,1.73A1.21,1.21,0,0,1,253.41,415.69Z"/><path class="cls-3" d="M175,299.11H130.72a3.15,3.15,0,0,1-3.14-3.14h0a3.15,3.15,0,0,1,3.14-3.15H175a3.14,3.14,0,0,1,3.14,3.15h0A3.14,3.14,0,0,1,175,299.11Z"/><path class="cls-4" d="M302.39,299.11H175.84A3.15,3.15,0,0,1,172.7,296h0a3.15,3.15,0,0,1,3.14-3.15H302.39Z"/><path class="cls-3" d="M209.2,355.21a3.44,3.44,0,1,1-3.44-3.43A3.44,3.44,0,0,1,209.2,355.21Z"/><path class="cls-5" d="M261.73,355.21a3.44,3.44,0,1,1-3.44-3.43A3.44,3.44,0,0,1,261.73,355.21Z"/><rect class="cls-6" x="167.41" y="157.75" width="52.58" height="41.15" rx="3.99"/><path class="cls-7" d="M205.11,175.92h-1.65a9.54,9.54,0,0,0-1.11-2.53l1.27-1.28a1.24,1.24,0,0,0,0-1.76l-1.79-1.79a1.24,1.24,0,0,0-1.76,0l-1.35,1.35a9.64,9.64,0,0,0-2.4-1v-2a1.25,1.25,0,0,0-1.24-1.25h-2.54a1.25,1.25,0,0,0-1.24,1.25V169a9.62,9.62,0,0,0-2.33.93l-1.48-1.49a1.24,1.24,0,0,0-1.76,0l-1.8,1.79a1.26,1.26,0,0,0,0,1.76l1.38,1.38a10,10,0,0,0-1.08,2.37h-1.94a1.25,1.25,0,0,0-1.24,1.25v2.53a1.24,1.24,0,0,0,1.24,1.24H184a9.81,9.81,0,0,0,.95,2.66l-1.16,1.16a1.26,1.26,0,0,0,0,1.76l1.8,1.79a1.26,1.26,0,0,0,1.76,0l1-1a9.63,9.63,0,0,0,2.75,1.24v1.41a1.23,1.23,0,0,0,1.24,1.24h2.53a1.24,1.24,0,0,0,1.25-1.24v-1.31a10.09,10.09,0,0,0,2.84-1.15l1,1a1.26,1.26,0,0,0,1.76,0l1.79-1.79a1.24,1.24,0,0,0,0-1.76l-1-1a10,10,0,0,0,1.09-2.75h1.54a1.25,1.25,0,0,0,1.25-1.25v-2.53A1.25,1.25,0,0,0,205.11,175.92Zm-10.05,9a6.39,6.39,0,1,1,5-5A6.4,6.4,0,0,1,195.06,184.94Z"/><rect class="cls-4" x="234.57" y="135.02" width="52.58" height="41.15" rx="3.99"/><path class="cls-7" d="M252,162.51a1.18,1.18,0,0,1-.87-.38l-5.54-5.93a1.38,1.38,0,0,1,0-1.86l5.64-6a1.17,1.17,0,0,1,1.73,0,1.38,1.38,0,0,1,0,1.86l-4.77,5.1,4.68,5a1.38,1.38,0,0,1,0,1.86A1.16,1.16,0,0,1,252,162.51Z"/><path class="cls-7" d="M269.74,162.51a1.16,1.16,0,0,1-.87-.38,1.38,1.38,0,0,1,0-1.86l4.67-5-4.76-5.1a1.38,1.38,0,0,1,0-1.86,1.17,1.17,0,0,1,1.73,0l5.64,6a1.38,1.38,0,0,1,0,1.86l-5.55,5.93A1.14,1.14,0,0,1,269.74,162.51Z"/><path class="cls-7" d="M258.11,164.14a1.22,1.22,0,0,1-.46-.09,1.36,1.36,0,0,1-.68-1.72l5.5-14.46a1.2,1.2,0,0,1,1.6-.72,1.35,1.35,0,0,1,.68,1.71l-5.5,14.46A1.25,1.25,0,0,1,258.11,164.14Z"/><path class="cls-7" d="M214.41,179H321.77a1.66,1.66,0,0,1,1.66,1.66v3.4a0,0,0,0,1,0,0H212.75a0,0,0,0,1,0,0v-3.4A1.66,1.66,0,0,1,214.41,179Z"/><path class="cls-8" d="M212.75,184.08H323.43a0,0,0,0,1,0,0V240a3.09,3.09,0,0,1-3.09,3.09H215.84a3.09,3.09,0,0,1-3.09-3.09V184.08A0,0,0,0,1,212.75,184.08Z"/><path class="cls-4" d="M318.12,181.55a.78.78,0,1,1-.78-.78A.78.78,0,0,1,318.12,181.55Z"/><path class="cls-4" d="M312.77,181.55a.78.78,0,1,1-.78-.78A.78.78,0,0,1,312.77,181.55Z"/><path class="cls-4" d="M307.42,181.55a.78.78,0,1,1-.78-.78A.78.78,0,0,1,307.42,181.55Z"/><path class="cls-6" d="M280,192.05H218.49a1.07,1.07,0,0,1-1.07-1.07h0a1.07,1.07,0,0,1,1.07-1.07H280A1.07,1.07,0,0,1,281,191h0A1.07,1.07,0,0,1,280,192.05Z"/><path class="cls-6" d="M280,198.86H218.49a1.07,1.07,0,0,1-1.07-1.07h0a1.07,1.07,0,0,1,1.07-1.07H280a1.07,1.07,0,0,1,1.07,1.07h0A1.07,1.07,0,0,1,280,198.86Z"/><path class="cls-6" d="M250.63,205.67H218.49a1.07,1.07,0,0,1-1.07-1.07h0a1.07,1.07,0,0,1,1.07-1.07h32.14a1.07,1.07,0,0,1,1.07,1.07h0A1.07,1.07,0,0,1,250.63,205.67Z"/><path class="cls-4" d="M280,219.28H218.49a1.07,1.07,0,0,1-1.07-1.07h0a1.07,1.07,0,0,1,1.07-1.07H280a1.07,1.07,0,0,1,1.07,1.07h0A1.07,1.07,0,0,1,280,219.28Z"/><path class="cls-4" d="M250.63,226.09H218.49a1.07,1.07,0,0,1-1.07-1.07h0a1.07,1.07,0,0,1,1.07-1.07h32.14A1.07,1.07,0,0,1,251.7,225h0A1.07,1.07,0,0,1,250.63,226.09Z"/><path class="cls-6" d="M250.63,232.9H218.49a1.07,1.07,0,0,1-1.07-1.07h0a1.07,1.07,0,0,1,1.07-1.07h32.14a1.07,1.07,0,0,1,1.07,1.07h0A1.07,1.07,0,0,1,250.63,232.9Z"/><path class="cls-7" d="M280,205.67h-23.1a1.07,1.07,0,0,1-1.07-1.07h0a1.07,1.07,0,0,1,1.07-1.07H280A1.07,1.07,0,0,1,281,204.6h0A1.07,1.07,0,0,1,280,205.67Z"/><path class="cls-4" d="M310.45,190.38l-16.33,16.33a1.06,1.06,0,0,1-1.51,0h0a1.06,1.06,0,0,1,0-1.51l16.33-16.33a1.06,1.06,0,0,1,1.51,0h0A1.06,1.06,0,0,1,310.45,190.38Z"/><circle class="cls-4" cx="301.53" cy="221.28" r="9.63" transform="translate(16.66 463.63) rotate(-76.66)"/><path class="cls-6" d="M300.27,228a5.45,5.45,0,1,1-5.45-5.45A5.45,5.45,0,0,1,300.27,228Z"/><polyline class="cls-8" points="212.75 237.11 212.75 256.58 230.65 238.69"/><polygon class="cls-9" points="193.7 261.85 232.97 261.85 247.16 289.17 207.9 289.17 193.7 261.85"/><path class="cls-7" d="M208.7,287.15l-11.76-22.62a.71.71,0,0,1,.63-1h34a.7.7,0,0,1,.63.38l11.76,22.63a.72.72,0,0,1-.63,1h-34A.7.7,0,0,1,208.7,287.15Z"/><rect class="cls-10" x="207.9" y="289.17" width="31.8" height="3.65"/><path class="cls-11" d="M267,289.17H235.64a1.82,1.82,0,0,0-1.82,1.83h0a1.81,1.81,0,0,0,1.82,1.82H267a1.81,1.81,0,0,0,1.82-1.82h0A1.82,1.82,0,0,0,267,289.17Z"/><path class="cls-10" d="M207.9,289.17l-14.2-27.32-.71.53a1.17,1.17,0,0,0-.33,1.48l15.24,29Z"/><rect class="cls-11" x="218.7" y="290.88" width="3.5" height="0.61"/><rect class="cls-11" x="223.1" y="290.88" width="3.5" height="0.61"/><rect class="cls-11" x="227.5" y="290.88" width="3.5" height="0.61"/><path class="cls-8" d="M279.48,342.66s-32.56,25.36-37.73,31.8c-1.95,2.44-5.34,6.71-8.86,11.09-5.78,7.19-11.91,14.69-12.64,14.87-1.16.29-10.94-7.15-11.23-8.75-.18-1,8.72-16.27,16.42-28.55,4.69-7.46,8.93-13.83,10.42-15.21,3.93-3.65,28.16-16.48,28.16-16.48Z"/><path class="cls-12" d="M217.33,395s30.43-43.31,45.7-50.6"/><path class="cls-13" d="M313.43,231.46c-.35.79-.74,1.6-1.18,2.44-2.39,4.55-.63,9.11-3.34,10.27a3,3,0,0,1-.55.17c-3.5.78-11.57-3.88-11.93-6.22s2.49-6.32,0-6.81-3.83,3.7-3.83,3.7c-2,.22-2.77-3.21-6.13-3.21a5.41,5.41,0,0,0-1.39.18,9.87,9.87,0,0,0-3.85,2.12,9.53,9.53,0,0,0-1,1,6.68,6.68,0,0,1-2.85-5.62c.24-5.9,2.42-10.2,7.67-11.08.58-6.56,6-10.07,13.2-10.29,6.32-.19,7.27,5.49,7.42,6.91a15.87,15.87,0,0,0-1.86-6.91c3.17-.14,6,2.12,5.23,9.49.73-2.19,3.29-3.58,5.25-2-1.82,0-3.57,3.06-3.57,3.06a12.2,12.2,0,0,1,3.59,3.89C315.5,224.65,315,227.74,313.43,231.46Z"/><path class="cls-14" d="M308.91,244.17l-.08,1.08-.28,3.83s-5.83,5-9.14,0l-.07-.1c-1-1.52-1.95-2-2.79-2.15-1.83-.22-3.3,1.56-4.82-.37A37.06,37.06,0,0,1,285.08,232a5.41,5.41,0,0,1,1.39-.18c3.36,0,4.09,3.43,6.13,3.21,0,0,1.35-4.18,3.83-3.7s-.35,4.48,0,6.81c.16,1,1.85,2.55,4,3.83,2.49,1.49,5.6,2.68,7.58,2.45l.35-.06A3,3,0,0,0,308.91,244.17Z"/><path class="cls-15" d="M309.82,251.3c-2.63,1.79-7.44,2.09-7.44,2.09l-3.94-.58s-1.65-2.39-.88-3.73a4.92,4.92,0,0,1,1-1.05,28.49,28.49,0,0,1,4.52-2.89,14.48,14.48,0,0,1,5-1.77C311.47,243.18,312.44,249.5,309.82,251.3Z"/><path class="cls-6" d="M309,315.14c-5.86,1.13-18.26-2.32-24.2-5a8.61,8.61,0,0,1-3.23-2c-1.14-2,0-3.55,2.83-9.92.32-.72.66-1.49,1-2.34,1.91-4.51,1.92-14.12,1.91-22.42,0-7.09-.05-13.21,1.08-14.3,2.44-2.36,14.65-10.08,14.65-10.08l2.44,12.67s1.37,6.44,2.82,14.83C311,292,314,314.19,309,315.14Z"/><path class="cls-8" d="M313.12,320.78c0,.58-5.83,14.19-10.73,16.14s-34.39-.2-34.39-.2l-14.59,9.54L256.47,375l2.13,20,.06.65c-4.46,2.91-15.7,3.69-16.91,1.18h0c-1.17-2.53-19.06-56.41-12.05-65.74s51.92-22.95,51.92-22.95a25.41,25.41,0,0,0,4,2,76.7,76.7,0,0,0,16.17,4.08c1.85.29,3.48.5,4.73.65,1.57.19,2.52.26,2.52.26S313.12,320.19,313.12,320.78Z"/><path class="cls-16" d="M260.51,414.42H222.58a2.21,2.21,0,0,1,.64-2c1.54-1.85,5.39-3.71,9.11-5.32,3.53-1.52,6.92-2.83,8-3.73,2.68-2.12,1.44-6.24,1.37-6.5.41.85,2,1.32,4,1.46,4,.29,10-.71,12.91-2.64l-.06-.65c1.12,2.16,1.66,12.84,1.84,17.38C260.49,413.64,260.51,414.42,260.51,414.42Z"/><path class="cls-17" d="M245.75,398.3c-.11,1.81-.37,4.74-.9,5.52-.77,1.17-9.14,5.26-10.3,4.87a7.06,7.06,0,0,1-2.22-1.62c3.53-1.52,6.92-2.83,8-3.73,2.68-2.12,1.44-6.24,1.37-6.5C242.16,397.69,243.71,398.16,245.75,398.3Z"/><path class="cls-17" d="M260.51,414.42H222.58a2.21,2.21,0,0,1,.64-2h37.22C260.49,413.64,260.51,414.42,260.51,414.42Z"/><path class="cls-16" d="M220.25,400.42A87.38,87.38,0,0,1,214.87,412c-1,1.61-1.93,2.65-2.59,2.39-2.34-.87-25.78-20.8-23.53-22.26a3.72,3.72,0,0,1,1.5-.44,45.18,45.18,0,0,1,8.55.34c2.68.28,5.18.58,6.48.58,3.31,0,3.74-1,3.74-1a6.1,6.1,0,0,0,1.62,2C213.54,396.42,219.37,400.64,220.25,400.42Z"/><path class="cls-17" d="M210.64,393.67a10.82,10.82,0,0,1-11.17.55,2.26,2.26,0,0,1-.67-2.16c2.68.28,5.18.58,6.48.58,3.31,0,3.74-1,3.74-1A6.1,6.1,0,0,0,210.64,393.67Z"/><path class="cls-17" d="M214.87,412c-1,1.61-1.93,2.65-2.59,2.39-2.34-.87-25.78-20.8-23.53-22.26a3.72,3.72,0,0,1,1.5-.44Z"/><path class="cls-14" d="M284.86,290.32c-1.83,2.55-5.12,6.45-7.82,6.05l-.33-.05c-5.16-.91-35.48-8.52-36.92-8.8s-11.66-.39-11.08-1.46,6.42-4.47,8-4.39,7.69,1.86,13.81,1.67,22.17,0,22.17,0l.78-1.35,1.15-2C274.27,286,281.43,290.8,284.86,290.32Z"/><path class="cls-12" d="M284.86,312.46s-1.4,7.44,4.05,9.92"/><path class="cls-12" d="M282,318.44s-36,15.37-37.75,20.13S253.41,395,253.41,395"/><path class="cls-18" d="M313.12,320.78c0,.58-5.83,14.19-10.73,16.14s-34.39-.2-34.39-.2l-14.59,9.54L256.47,375s-6.17-32.81-6.17-35c0-1.83,40.75-13.54,51.49-25.8,4.2.67,7.25.91,7.25.91S313.12,320.19,313.12,320.78Z"/><path class="cls-15" d="M293.91,286c-2.53,3.59-6.6,8.14-9.47,12.26.32-.72.66-1.49,1-2.34,1.91-4.51,1.92-14.12,1.91-22.42l8.74-5.77S298,280.18,293.91,286Z"/><path class="cls-19" d="M286.46,289.21c-.38.35-.76.69-1.15,1a2.11,2.11,0,0,1-.45.1c-3.43.48-10.59-4.37-10.27-10.31a8.38,8.38,0,0,1,1-2.48c2.93-5.91,11.74-19.06,13.36-18.45,0,0,5.67.87,7.21,8.61C297.55,275,292.35,283.75,286.46,289.21Z"/><path class="cls-15" d="M306.52,314.88c-1.25-.15-2.88-.36-4.73-.65a76.7,76.7,0,0,1-16.17-4.08c4.4-.16,13.83-3,15-24.62A107.27,107.27,0,0,0,303,298,171.81,171.81,0,0,1,306.52,314.88Z"/><path class="cls-15" d="M304.19,243.74a14.66,14.66,0,0,0-1.07,1.4A28.49,28.49,0,0,0,298.6,248a3.27,3.27,0,0,0-2.05-1.2l3.88-4.88A21.19,21.19,0,0,0,304.19,243.74Z"/><path class="cls-15" d="M284.86,290.32c-1.83,2.55-5.12,6.45-7.82,6.05l-.33-.05c-3.34-4.83-3.46-11.16-3.27-14.33l1.15-2C274.27,286,281.43,290.8,284.86,290.32Z"/><path class="cls-15" d="M313.43,231.46c-.35.79-.74,1.6-1.18,2.44a16.37,16.37,0,0,0-1.53,6.3,14.22,14.22,0,0,0-1.2-.82,21.25,21.25,0,0,0-5.33,4.36h0c-3.56-1.28-7.5-4-7.75-5.63-.35-2.33,2.49-6.32,0-6.81s-3.83,3.7-3.83,3.7c-2,.22-2.77-3.21-6.13-3.21a5.41,5.41,0,0,0-1.39.18,9.87,9.87,0,0,0-3.85,2.12s3.79-5.32,9.72-4.24c0,0-.87-1.66-4.86-1.46,8.36-2.73,13.71-1.65,16.29,1.36C304.48,232.22,309.41,235.27,313.43,231.46Z"/><path class="cls-10" d="M330.43,346.26H301.25s23.15-6.81,23.15-52.71c0-.59,0-1.17,0-1.75-.23-30.68-6.79-47.6-14.87-52.42a35.29,35.29,0,0,1,10.34-3.92,55.32,55.32,0,0,1,6.44-1c20-2,35.94,5.8,37.84,14.66S354.35,346.26,330.43,346.26Z"/><path class="cls-9" d="M324.4,293.55c0,45.9-23.15,52.71-23.15,52.71H253.41l2-1.42,12.6-8.12L293.28,335c1.36-5.64,5.06-5.82,10.7-6.41,3.28-.34,3.6-5.88,2.6-13.21A167.41,167.41,0,0,0,303,298a107.27,107.27,0,0,1-2.38-12.5,111.25,111.25,0,0,1-.91-13.48A114.52,114.52,0,0,1,302,248.13c.12-.58.24-1.14.36-1.67,0,0,0,0,0-.05a12,12,0,0,1,1.79-2.66h0a21.25,21.25,0,0,1,5.33-4.36,14.22,14.22,0,0,1,1.2.82c7.52,5.73,13.44,22.45,13.67,51.6C324.4,292.38,324.4,293,324.4,293.55Z"/><path class="cls-10" d="M315.17,414.42H280.73a1.24,1.24,0,0,1-.76-2.22l8.61-6.74A15.79,15.79,0,0,0,294.64,393V346.26h6.61V393a15.8,15.8,0,0,0,6.07,12.44l8.61,6.74A1.24,1.24,0,0,1,315.17,414.42Z"/><g class="cls-20"><path class="cls-21" d="M341.44,236.18s.25.65.66,1.94"/><path class="cls-22" d="M343.26,242.1a160.79,160.79,0,0,1,3.9,20.53c3.13,24.15-.05,58.05-21.06,79.53"/><path class="cls-21" d="M324.62,343.63c-.49.47-1,.93-1.5,1.39"/></g><path class="cls-18" d="M301.25,346.26V359a46.67,46.67,0,0,1-6.61,2.78V346.26Z"/><path class="cls-18" d="M310.4,326.42c-1.56,4.86-11.27,4-12.45,7.59-2.5,7.63-3.89,4.27-13.51,5.24-5.5.56-9.49,4.09-11.9,7H253.41l2-1.42,12.6-8.12L293.28,335c1.36-5.64,5.06-5.82,10.7-6.41,3.28-.34,3.6-5.88,2.6-13.21A167.41,167.41,0,0,0,303,298a107.27,107.27,0,0,1-2.38-12.5,111.25,111.25,0,0,1-.91-13.48C303.42,291.54,311.55,322.82,310.4,326.42Z"/><path class="cls-18" d="M324.4,293.55c0-.59,0-1.17,0-1.75-.23-30.68-6.79-47.6-14.87-52.42a35.29,35.29,0,0,1,10.34-3.92c-1.34,1.93-2.73,4.82-2.07,7.9,1.17,5.46,14.39,26.46,9.34,60.11-3.65,24.28-2.44,36.91,1.37,42.79H301.25S324.4,339.45,324.4,293.55Z"/><path class="cls-15" d="M157.46,268.55a15,15,0,0,1-.32,3h-9.38a29.27,29.27,0,0,1-10-10.9c2.51,2.73,6.8,6.06,11.17,7.08C152.78,268.57,155.62,268.19,157.46,268.55Z"/><path class="cls-6" d="M179.26,231.27c-1,3.81-5.85,11.19-10.24,19.1-4.8,8.62-9.08,17.86-7.41,23.73a13.06,13.06,0,0,1,.61,3.33c0,2.56-1.92,1.76-3.88.32a36,36,0,0,1-4-3.65l.15-11.37s-6.45-5.93-1.16-18.89c.34-.82.72-1.67,1.16-2.56,7.29-14.73,18.23-30.19,7.87-34.57C176.64,205.83,181.45,223.31,179.26,231.27Z"/><g class="cls-23"><path d="M162.34,206.71a10.59,10.59,0,0,1,6.49,4.67,13.63,13.63,0,0,1,1,1.79,16.52,16.52,0,0,1,.71,1.93,13.82,13.82,0,0,1,.47,2l.18,1,.07,1a25.71,25.71,0,0,1-1.85,8c-1,2.57-2.06,5.07-3.19,7.55-2.28,5-4.74,9.84-6.9,14.84a67.93,67.93,0,0,0-2.86,7.62,24.39,24.39,0,0,0-.85,3.93,8.46,8.46,0,0,0,.26,3.86v0a.42.42,0,0,1-.25.52.42.42,0,0,1-.53-.25h0a9.37,9.37,0,0,1-.26-4.23,26.43,26.43,0,0,1,.93-4.05,69,69,0,0,1,3-7.66c2.24-5,4.75-9.83,7.09-14.76,1.16-2.46,2.29-4.95,3.27-7.49a25.37,25.37,0,0,0,1.93-7.87l-.05-1-.16-1a15.07,15.07,0,0,0-.45-2,19,19,0,0,0-.67-1.92,15.47,15.47,0,0,0-1-1.79A10.61,10.61,0,0,0,162.34,206.71Z"/></g><path class="cls-19" d="M172.7,254.26c-4.37,11.53,0,20.27-6.57,21.51-3,.58-4.33-1.65-4.88-4.24a23.57,23.57,0,0,1-.22-6.62,22.4,22.4,0,0,1,3.46-5.61A13.83,13.83,0,0,1,172.7,254.26Z"/><path class="cls-10" d="M157.46,268.55c0,2.68-.63,5-1.88,6.15a3.45,3.45,0,0,1-.36.32c-3.1,2.51-5.08-2.09-5.08-2.09s-8.25-4.07-12.34-12.32c-3.14-6.35-3.83-15.17,3.54-26.51,1.08,8.07,5.51,13.57,9.9,18.8h0c.54.66,1.08,1.3,1.62,1.94A22.51,22.51,0,0,1,157.46,268.55Z"/><g class="cls-23"><path d="M141.34,234.1a35.73,35.73,0,0,0-.56,10.57,22.85,22.85,0,0,0,3.24,10c1.84,3,4.38,5.5,6.69,8.22a20.51,20.51,0,0,1,3,4.46,10.65,10.65,0,0,1,1,5.37.41.41,0,0,1-.44.37.4.4,0,0,1-.38-.44h0a9.78,9.78,0,0,0-.83-5,19.27,19.27,0,0,0-2.84-4.37c-2.23-2.72-4.76-5.29-6.57-8.4a23.07,23.07,0,0,1-3.09-10.15A35.86,35.86,0,0,1,141.34,234.1Z"/></g><g class="cls-20"><path d="M172.7,254.26c-1.25,1.45-2.42,3-3.53,4.53S167,262,166.05,263.6a30.25,30.25,0,0,0-4,10.56h0a.42.42,0,0,1-.47.35.4.4,0,0,1-.34-.46v0a30.83,30.83,0,0,1,4.49-10.65c1-1.63,2.14-3.2,3.3-4.72S171.39,255.67,172.7,254.26Z"/></g><path class="cls-10" d="M170,274.39l-2.8,17.19a1.51,1.51,0,0,1-1.5,1.24H148.3a1.53,1.53,0,0,1-1.51-1.24l-2.27-14-.53-3.23a1.54,1.54,0,0,1,1.51-1.81h23A1.52,1.52,0,0,1,170,274.39Z"/><path class="cls-9" d="M172.7,277.89H141.34l.83-4.68a2.07,2.07,0,0,1,2-1.7h25.65a2.06,2.06,0,0,1,2,1.7Z"/><path class="cls-15" d="M161,264.91a23.43,23.43,0,0,0,.22,6.6h-4.11a15,15,0,0,0,.32-3,22.51,22.51,0,0,0-4.6-13.71c-.54-.64-1.08-1.28-1.62-1.94h0a25.63,25.63,0,0,1,2.07-9.06c.24,4.13,1.26,11.32,5.38,12.08,3.14.57,7.22-2.54,10.33-5.55-1.64,2.95-3.22,6-4.53,8.93A22.4,22.4,0,0,0,161,264.91Z"/><path class="cls-15" d="M158.71,292.82H148.3a1.53,1.53,0,0,1-1.51-1.24l-2.23-13.69h9a25.92,25.92,0,0,0,.19,8.27A12.25,12.25,0,0,0,158.71,292.82Z"/><rect class="cls-8" x="188.99" y="110.1" width="52.58" height="41.15" rx="3.99"/><path class="cls-7" d="M201.23,124.65v4.43a.64.64,0,0,0,.64.64h2.45a.65.65,0,0,0,.65-.64v-4.43a.64.64,0,0,1,.64-.64h.23a.65.65,0,0,1,.65.64v12a.65.65,0,0,1-.65.64h-.23a.64.64,0,0,1-.64-.64v-4.94a.65.65,0,0,0-.65-.65h-2.45a.65.65,0,0,0-.64.65v4.94a.64.64,0,0,1-.64.64h-.24a.64.64,0,0,1-.64-.64v-12a.64.64,0,0,1,.64-.64h.24A.64.64,0,0,1,201.23,124.65Z"/><path class="cls-7" d="M209.78,125.37h-1.15a.64.64,0,0,1-.64-.64v-.08a.64.64,0,0,1,.64-.64h5.1a.64.64,0,0,1,.64.64v.08a.64.64,0,0,1-.64.64h-1.15a.64.64,0,0,0-.64.64v10.68a.64.64,0,0,1-.64.64h-.24a.64.64,0,0,1-.64-.64V126A.64.64,0,0,0,209.78,125.37Z"/><path class="cls-7" d="M223.84,131.6c-.1-1.76-.2-3.72-.14-5.22h-.08c-.3,1.48-.65,3.06-1.07,4.63l-1.64,6.24h-1l-1.56-6c-.43-1.7-.83-3.34-1.08-4.88h-.06c0,1.56-.08,3.42-.16,5.32l-.23,5a.65.65,0,0,1-.64.61h-.07a.64.64,0,0,1-.64-.68l.71-12a.64.64,0,0,1,.64-.6h.54a.64.64,0,0,1,.62.48l1.44,5.61c.46,1.76.79,3.06,1.07,4.58h.06c.25-1.52.55-2.78,1-4.58l1.38-5.6a.64.64,0,0,1,.62-.49h.59a.64.64,0,0,1,.64.6l.7,12a.64.64,0,0,1-.64.68h-.13a.64.64,0,0,1-.64-.61Z"/><path class="cls-7" d="M228.25,124h.24a.64.64,0,0,1,.64.64v10.76a.65.65,0,0,0,.65.64h2.47a.64.64,0,0,1,.64.64h0a.64.64,0,0,1-.64.64h-4a.64.64,0,0,1-.64-.64v-12A.64.64,0,0,1,228.25,124Z"/><path class="cls-8" d="M257.92,113.62A1.89,1.89,0,0,0,260,111.5a24.29,24.29,0,0,0-.18-2.58,26,26,0,0,1-.19-2.67c0-2.74,1.67-3.89,3.83-3.89h.36v1.58h-.45c-1.28,0-1.79.91-1.79,2.28a18.34,18.34,0,0,0,.18,2.3c.06.79.15,1.52.15,2.25,0,2.37-.79,3.18-2.09,3.55v.06c1.3.39,2.12,1.21,2.09,3.61,0,.76-.09,1.52-.15,2.28a19.31,19.31,0,0,0-.18,2.33c0,1.37.45,2.31,1.82,2.31h.42v1.58h-.39c-2,0-3.8-1-3.8-3.89a26.59,26.59,0,0,1,.19-2.7,26,26,0,0,0,.18-2.61,1.92,1.92,0,0,0-2.06-2.15Z"/><path class="cls-8" d="M288.85,115.14a1.91,1.91,0,0,0-2.06,2.15,26,26,0,0,0,.18,2.61,26.61,26.61,0,0,1,.18,2.7c0,2.89-1.79,3.89-3.79,3.89H283v-1.58h.42c1.37-.15,1.82-.94,1.82-2.31,0-.82-.09-1.57-.15-2.33a19.45,19.45,0,0,1-.18-2.28c0-2.4.79-3.22,2.09-3.61v-.06c-1.3-.37-2.12-1.18-2.09-3.55a20,20,0,0,1,.18-2.25c.06-.73.15-1.48.15-2.3,0-1.37-.52-2.13-1.79-2.28H283v-1.58h.36c2.15,0,3.82,1.15,3.82,3.89a26,26,0,0,1-.18,2.67,24.29,24.29,0,0,0-.18,2.58,1.88,1.88,0,0,0,2.06,2.12Z"/><polygon class="cls-4" points="278.44 117.34 278.44 111.51 273.38 108.59 268.33 111.51 268.33 117.34 273.38 120.26 278.44 117.34"/><path class="cls-4" d="M316.48,146.43a12.33,12.33,0,0,0-14.72,19.23l-1.85-.22a.41.41,0,0,0-.1.81l2.83.34a.4.4,0,0,0,.3-.09.39.39,0,0,0,.15-.27l.33-2.73a.41.41,0,0,0-.82-.1l-.2,1.74a11.51,11.51,0,0,1,13.71-18,.41.41,0,0,0,.37-.73Z"/><path class="cls-4" d="M305.85,169.08a12.33,12.33,0,0,0,14.71-19.23l1.86.22a.4.4,0,0,0,.45-.36.4.4,0,0,0-.36-.45l-2.82-.34a.4.4,0,0,0-.3.09.39.39,0,0,0-.15.27l-.33,2.73a.41.41,0,0,0,.81.1l.21-1.74a11.51,11.51,0,0,1-13.71,18,.4.4,0,0,0-.55.18A.41.41,0,0,0,305.85,169.08Z"/><path class="cls-4" d="M415.31,192.05H341.24a2.45,2.45,0,0,1-2.45-2.44h0a2.45,2.45,0,0,1,2.45-2.45h74.07a2.45,2.45,0,0,1,2.45,2.45h0A2.45,2.45,0,0,1,415.31,192.05Z"/><path class="cls-6" d="M388.86,202.68H341.24a2.45,2.45,0,0,1-2.45-2.44h0a2.45,2.45,0,0,1,2.45-2.45h47.62a2.45,2.45,0,0,1,2.45,2.45h0A2.45,2.45,0,0,1,388.86,202.68Z"/><path class="cls-6" d="M388.86,214.09H341.24a2.45,2.45,0,0,1-2.45-2.44h0a2.45,2.45,0,0,1,2.45-2.45h47.62a2.45,2.45,0,0,1,2.45,2.45h0A2.45,2.45,0,0,1,388.86,214.09Z"/><path class="cls-6" d="M152.67,151.43H114.19a2.44,2.44,0,0,1-2.44-2.44h0a2.45,2.45,0,0,1,2.44-2.45h38.48a2.45,2.45,0,0,1,2.44,2.45h0A2.44,2.44,0,0,1,152.67,151.43Z"/><path class="cls-4" d="M138.14,162.06H114.19a2.44,2.44,0,0,1-2.44-2.44h0a2.45,2.45,0,0,1,2.44-2.45h23.95a2.45,2.45,0,0,1,2.44,2.45h0A2.44,2.44,0,0,1,138.14,162.06Z"/><path class="cls-4" d="M138.14,173.47H114.19a2.44,2.44,0,0,1-2.44-2.44h0a2.45,2.45,0,0,1,2.44-2.45h23.95a2.45,2.45,0,0,1,2.44,2.45h0A2.44,2.44,0,0,1,138.14,173.47Z"/><path class="cls-19" d="M381.94,328.65a119.55,119.55,0,0,1-8.26,18.52c-10.35,18.91-22.38,30.95-22.83,48.58a105.5,105.5,0,0,1-.73-35.54c1.68-10.64,5.47-22,13.24-31.56,21.62-26.58,18.42-50.76,18.42-50.76S392.61,297.72,381.94,328.65Z"/><g class="cls-20"><path d="M356.47,375.06a27.19,27.19,0,0,1,0-6.5,41.36,41.36,0,0,1,1.15-6.36,60.49,60.49,0,0,1,4.6-12c.94-1.93,2.05-3.77,3.14-5.62l3.48-5.37a74.67,74.67,0,0,0,5.66-11.4,108.71,108.71,0,0,0,4-12.1q1.69-6.17,2.79-12.47a115.32,115.32,0,0,0,1.53-12.69,61.93,61.93,0,0,0,.1-6.39,28,28,0,0,0-.3-3.18,10.17,10.17,0,0,0-.86-3.07,10.2,10.2,0,0,1,.91,3.06,26.2,26.2,0,0,1,.35,3.18,62.3,62.3,0,0,1,0,6.41,109,109,0,0,1-1.37,12.74c-.69,4.22-1.57,8.41-2.67,12.54A111.26,111.26,0,0,1,375.08,328a75.67,75.67,0,0,1-5.6,11.57L366,345c-1.07,1.83-2.17,3.65-3.08,5.56a58.85,58.85,0,0,0-4.5,11.86,42.65,42.65,0,0,0-1.14,6.23,26.23,26.23,0,0,0,0,6.26v0a.41.41,0,0,1-.35.46A.41.41,0,0,1,356.47,375.06Z"/></g><path class="cls-15" d="M373.68,347.17c-10.35,18.91-22.38,30.95-22.83,48.58a105.5,105.5,0,0,1-.73-35.54C356.83,357.47,366.27,353,373.68,347.17Z"/><path class="cls-6" d="M356.86,414.43s-7.56-12.93,10.33-28.88,31.9-37.05,29.17-54.12c-17.11,19.88-62.62,48.08-49.79,83Z"/><g class="cls-20"><path d="M396.36,331.43A58,58,0,0,1,389.9,342a91.52,91.52,0,0,1-8.14,9.34,120.78,120.78,0,0,1-9.25,8.27,61,61,0,0,0-8.53,8.92,67,67,0,0,0-11.44,21.73,47,47,0,0,0-2.08,12.09,27.83,27.83,0,0,0,2,12,.41.41,0,0,1-.75.33h0a28.48,28.48,0,0,1-2-12.3A48.08,48.08,0,0,1,352,390.07a67.8,67.8,0,0,1,11.71-21.81,61.1,61.1,0,0,1,8.65-8.89,120.59,120.59,0,0,0,9.3-8.18,89.18,89.18,0,0,0,8.21-9.27A57.72,57.72,0,0,0,396.36,331.43Z"/></g><path class="cls-19" d="M100.06,320.78s-9.34-8.51-14.3-29.78c28.59,24.24,35.59,45.82,35.59,45.82Z"/><g class="cls-20"><path d="M85.76,291q6,8.53,11.65,17.27,2.85,4.37,5.55,8.82a90.35,90.35,0,0,1,5,9.19.41.41,0,0,1-.75.34h0a93.29,93.29,0,0,0-4.77-9.2q-2.61-4.5-5.36-8.92Q91.57,299.65,85.76,291Z"/></g><path class="cls-6" d="M120.77,332.74c-5.14-4.63-12.75-9.23-20-14.17C91.14,312,82.16,304.78,80.5,296c-3.78,31.82,33.22,46.14,33.22,46.14l.08.11,13.44,19.6S132.73,343.53,120.77,332.74Z"/><g class="cls-20"><path d="M80.5,296a24.83,24.83,0,0,0,2.55,10.21,31.46,31.46,0,0,0,6.18,8.52,52.36,52.36,0,0,0,8.38,6.43c3,1.93,6,3.79,8.89,5.79,5.84,4,11.43,8.59,15.34,14.6a36.63,36.63,0,0,1,5.81,20.3.41.41,0,0,1-.82,0h0a36.08,36.08,0,0,0-5.5-20c-3.79-5.94-9.28-10.59-15.06-14.59-2.9-2-5.88-3.91-8.83-5.87a51.83,51.83,0,0,1-8.35-6.55A31.49,31.49,0,0,1,83,306.21,24.68,24.68,0,0,1,80.5,296Z"/></g><path class="cls-2" d="M384.21,428.62H135.6a7.1,7.1,0,0,1-7.1-7.1h0a7.1,7.1,0,0,1,7.1-7.1H384.21a7.1,7.1,0,0,1,7.1,7.1h0A7.1,7.1,0,0,1,384.21,428.62Z"/></g></g></svg>