<svg width="1612" height="1789" viewBox="0 0 1612 1789" fill="none" xmlns="http://www.w3.org/2000/svg">
<path fill-rule="evenodd" clip-rule="evenodd" d="M974.18 88.4077V522.497L864.811 461.41L803.615 427.23L742.534 461.617L449.543 626.566L385.866 662.416V735.491V1057.61V1131.37L450.428 1167.03L743.419 1328.86L803.618 1362.12L863.929 1329.07L1159.25 1167.23L1224.18 1131.65V1057.61V735.491V226.775L974.18 88.4077ZM804.099 713.853L974.18 808.85V983.57L804.096 1076.78L635.866 983.853V808.566L804.099 713.853Z" fill="#009DB0"/>
<path fill-rule="evenodd" clip-rule="evenodd" d="M802 1.30243L749.244 31.0288L56.1878 421.541L0.186768 453.096V517.375V1279.98V1344.86L56.9664 1376.25L750.022 1759.39L803.032 1788.7L856.14 1759.57L1554.71 1376.43L1611.81 1345.11V1279.98V517.375V452.846L1555.49 421.359L1392 329.967V639H1391.81V1214.85L803.453 1537.55L220.187 1215.1V581.654L802 253.823V1.30243Z" fill="#009DB0" fill-opacity="0.8"/>
<path fill-rule="evenodd" clip-rule="evenodd" d="M749.244 30.1245L802.091 0.346863V252.867L220.187 580.75V581.745L0.186768 452.657V452.192L56.1878 420.637L749.244 30.1245ZM220.452 1465.72L750.022 1758.49L803.032 1787.79L856.14 1758.67L1554.71 1375.52L1611.81 1344.2V1279.08V1093.4L1296.05 1266.87L1295.88 1266.57L803.453 1536.65L220.452 1214.34V1465.72Z" fill="#066874"/>
</svg>
