<svg width="62" height="89" viewBox="0 0 1612 1789" fill="none" xmlns="http://www.w3.org/2000/svg">
<path fill-rule="evenodd" clip-rule="evenodd" d="M973.993 88.0608V522.15L864.624 461.064L803.428 426.883L742.347 461.27L449.356 626.22L385.679 662.069V735.144V1057.26V1131.02L450.241 1166.68L743.232 1328.52L803.431 1361.77L863.742 1328.72L1159.06 1166.88L1223.99 1131.3V1057.26V735.144V226.428L973.993 88.0608ZM803.912 713.506L973.993 808.503V983.224L803.909 1076.43L635.679 983.506V808.219L803.912 713.506Z" fill="white"/>
<path fill-rule="evenodd" clip-rule="evenodd" d="M801.813 0.955566L749.057 30.6819L56.001 421.195L0 452.749V517.028V1279.63V1344.51L56.7796 1375.9L749.836 1759.05L802.846 1788.35L855.953 1759.22L1554.52 1376.08L1611.63 1344.76V1279.63V517.028V452.499L1555.3 421.012L1391.81 329.62V638.653H1391.63V1214.51L803.266 1537.2L220 1214.75V581.307L801.813 253.476V0.955566Z" fill="white" fill-opacity="0.8"/>
<path fill-rule="evenodd" clip-rule="evenodd" d="M749.057 29.7777L801.904 0V252.521L220 580.403V581.399L0 452.311V451.845L56.001 420.29L749.057 29.7777ZM220.265 1465.38L749.836 1758.14L802.846 1787.45L855.953 1758.32L1554.52 1375.18L1611.63 1343.86V1278.73V1093.05L1295.86 1266.52L1295.69 1266.22L803.266 1536.3L220.265 1214V1465.38Z" fill="#BFBFBF"/>
</svg>
